# xmcd
#
# Track frame offsets:
#	150
#	18039
#	47753
#	71355
#	107597
#	134355
#	160515
#	179003
#	210508
#	253472
#	276831
#	313285
#
# Disc length: 4506 seconds
#
# Revision: 0
# Processed by: cddbd v1.5.2PL0 Copyright (c) Steve Scherf et al.
# Submitted via: audiograbber 1.83.01
#
DISCID=aa11980c
DTITLE=Grateful Dead - 94-03-28 Nassau Veterans Memorial Coliseum, Uniondale NY
DYEAR=1900
DGENRE=
TTITLE0=Let The Good Times Roll
TTITLE1=Bertha
TTITLE2=Greatest Story Ever Told
TTITLE3=West LA Fadeaway
TTITLE4=When I Paint My Masterpiece
TTITLE5=It Must Have Been The Roses
TTITLE6=Beat It On Down The Line
TTITLE7=Peggy-O
TTITLE8=The Music Never Stopped
TTITLE9=Rain
TTITLE10=Victim Or The Crime
TTITLE11=Box Of Rain
EXTD=
EXTT0=
EXTT1=
EXTT2=
EXTT3=
EXTT4=
EXTT5=
EXTT6=
EXTT7=
EXTT8=
EXTT9=
EXTT10=
EXTT11=
PLAYORDER=
